<svg width="512" height="512" viewBox="0 0 512 512" fill="none" xmlns="http://www.w3.org/2000/svg">
<path d="M288 304V286C288 269.37 273.74 256 256 256C238.26 256 224 269.37 224 286V304" stroke="black" stroke-width="32" stroke-linecap="round" stroke-linejoin="round"/>
<path d="M304 416H208C199.513 416 191.374 412.629 185.373 406.627C179.371 400.626 176 392.487 176 384V336C176 327.513 179.371 319.374 185.373 313.373C191.374 307.371 199.513 304 208 304H304C312.487 304 320.626 307.371 326.627 313.373C332.629 319.374 336 327.513 336 336V384C336 392.487 332.629 400.626 326.627 406.627C320.626 412.629 312.487 416 304 416Z" fill="black"/>
<path d="M416 221.25V416C416 428.73 410.943 440.939 401.941 449.941C392.939 458.943 380.73 464 368 464H144C131.27 464 119.061 458.943 110.059 449.941C101.057 440.939 96 428.73 96 416V96C96 83.2696 101.057 71.0606 110.059 62.0589C119.061 53.0571 131.27 48 144 48H242.75C251.234 48.0013 259.37 51.3716 265.37 57.37L406.63 198.63C412.628 204.63 415.999 212.766 416 221.25Z" stroke="black" stroke-width="32" stroke-linejoin="round"/>
<path d="M256 50.8809V176.001C256 184.488 259.371 192.627 265.373 198.628C271.374 204.629 279.513 208.001 288 208.001H413.12" stroke="black" stroke-width="32" stroke-linecap="round" stroke-linejoin="round"/>
</svg>
